<?xml version="1.0" encoding="utf-8"?>
<!-- Generator: Adobe Illustrator 16.0.0, SVG Export Plug-In . SVG Version: 6.00 Build 0)  -->
<!DOCTYPE svg PUBLIC "-//W3C//DTD SVG 1.1//EN" "http://www.w3.org/Graphics/SVG/1.1/DTD/svg11.dtd">
<svg version="1.1" id="Layer_1" xmlns="http://www.w3.org/2000/svg" xmlns:xlink="http://www.w3.org/1999/xlink" x="0px" y="0px"
	 width="340px" height="40px" viewBox="0 0 340 40" style="enable-background:new 0 0 340 40;" xml:space="preserve">
<style type="text/css">
<![CDATA[
	.st0{fill:#636468;}
	.st1{fill:#FFFFFF;stroke:#6BB0E1;}
	.st2{fill:#6BB0E1;}
]]>
</style>
<g>
	<path class="st0" d="M114.377,29.213V10.837h11.626c3.104,0.074,4.958,0.152,5.565,0.234c0.606,0.083,1.193,0.335,1.763,0.757
		c0.992,0.753,1.487,2.314,1.487,4.684c0,1.249-0.106,2.231-0.317,2.948s-0.564,1.277-1.061,1.68
		c-0.496,0.423-1.019,0.712-1.57,0.868c-0.551,0.156-1.433,0.243-2.645,0.262c-0.22,0.019-1.295,0.027-3.223,0.027h-9.174v6.915
		H114.377z M116.829,20.149h9.174c2.222,0,3.613-0.032,4.173-0.097c0.56-0.064,1.024-0.252,1.392-0.565
		c0.496-0.422,0.744-1.386,0.744-2.893c0-0.955-0.046-1.629-0.138-2.025c-0.092-0.395-0.275-0.693-0.551-0.895
		c-0.385-0.276-0.85-0.45-1.391-0.523c-0.542-0.073-1.952-0.128-4.229-0.166h-9.174V20.149z"/>
	<path class="st0" d="M136.554,29.213V10.837h11.46c3.104,0.037,5.078,0.11,5.923,0.221c1.524,0.202,2.58,0.881,3.168,2.039
		c0.386,0.79,0.579,1.883,0.579,3.278c0,1.69-0.203,2.856-0.606,3.499c-0.404,0.643-1.212,1.093-2.424,1.35
		c0.808,0.147,1.432,0.459,1.873,0.937c0.367,0.368,0.597,0.809,0.689,1.322c0.091,0.515,0.138,1.553,0.138,3.113v2.617h-2.452
		V27.45c0-1.599-0.037-2.636-0.11-3.113c-0.147-1.194-0.799-1.874-1.956-2.039c-0.57-0.092-2.176-0.146-4.821-0.165h-9.009v7.08
		H136.554z M139.006,19.984h9.009h2.204c1.469,0,2.539-0.092,3.209-0.275c0.67-0.184,1.125-0.505,1.364-0.964
		c0.257-0.478,0.386-1.276,0.386-2.397c0-1.396-0.294-2.295-0.882-2.7c-0.368-0.275-0.95-0.455-1.75-0.537
		c-0.799-0.083-2.31-0.124-4.532-0.124h-9.009V19.984z"/>
	<path class="st0" d="M171.652,10.782c3.141,0,5.354,0.102,6.64,0.303c1.285,0.202,2.223,0.597,2.811,1.185
		c0.697,0.661,1.129,1.874,1.295,3.637c0.127,1.084,0.191,2.479,0.191,4.188c0,2.259-0.105,3.967-0.316,5.124
		c-0.211,1.157-0.574,2.012-1.088,2.562c-0.533,0.569-1.418,0.96-2.658,1.171s-3.265,0.316-6.075,0.316
		c-4.941,0-8.082-0.146-9.422-0.44c-0.753-0.165-1.401-0.519-1.942-1.061c-0.542-0.542-0.896-1.18-1.061-1.915
		c-0.275-1.102-0.413-3.066-0.413-5.895c0-2.461,0.128-4.271,0.385-5.427c0.257-1.157,0.726-1.993,1.405-2.507
		c0.478-0.349,1.015-0.601,1.612-0.757c0.596-0.156,1.52-0.271,2.769-0.344C167.621,10.829,169.577,10.782,171.652,10.782z
		 M170.22,12.986c-2.278,0-3.949,0.069-5.014,0.207c-1.065,0.138-1.782,0.372-2.149,0.703c-0.625,0.569-0.937,2.525-0.937,5.868
		c0,2.038,0.055,3.521,0.165,4.449c0.11,0.928,0.312,1.547,0.606,1.859c0.422,0.459,1.515,0.744,3.278,0.854
		c1.653,0.092,3.407,0.138,5.262,0.138c2.976,0,5.134-0.12,6.476-0.358c1.027-0.184,1.652-0.809,1.873-1.873
		c0.201-1.213,0.303-2.773,0.303-4.684c0-2.479-0.092-4.178-0.275-5.097c-0.166-1.01-0.854-1.607-2.066-1.791
		C176.565,13.079,174.059,12.986,170.22,12.986z"/>
	<path class="st0" d="M198.705,10.837h2.452v9.504c-0.019,2.277-0.046,3.733-0.083,4.367c-0.037,0.633-0.146,1.198-0.33,1.694
		c-0.312,0.808-0.771,1.409-1.378,1.804c-0.605,0.396-1.506,0.671-2.699,0.827c-1.194,0.156-2.957,0.233-5.29,0.233
		c-1.965,0-3.448-0.109-4.449-0.33s-1.74-0.597-2.218-1.13c-0.422-0.478-0.707-1.074-0.854-1.79
		c-0.147-0.717-0.229-1.901-0.248-3.555h2.314v0.606c0.036,1.322,0.151,2.209,0.344,2.658c0.193,0.45,0.61,0.785,1.254,1.006
		c0.697,0.221,2.148,0.331,4.353,0.331c0.826,0,2.112-0.046,3.857-0.138c0.808-0.056,1.404-0.184,1.79-0.386
		s0.671-0.523,0.854-0.965c0.146-0.367,0.238-0.84,0.275-1.419c0.036-0.578,0.055-1.85,0.055-3.815V10.837z"/>
	<path class="st0" d="M203.72,29.213V10.837h17.989v2.149h-15.538v5.62h14.877v2.149h-14.877v6.309h15.565v2.148H203.72z"/>
	<path class="st0" d="M242.178,22.932h2.369c-0.073,1.781-0.174,2.966-0.303,3.554s-0.404,1.084-0.826,1.488
		c-0.533,0.514-1.373,0.858-2.521,1.032c-1.148,0.175-3.137,0.262-5.965,0.262c-3.618,0-6.103-0.096-7.452-0.289
		c-1.35-0.192-2.328-0.583-2.934-1.171c-0.515-0.514-0.882-1.336-1.103-2.466c-0.22-1.129-0.33-2.805-0.33-5.027
		c0-2.553,0.128-4.444,0.386-5.675c0.257-1.23,0.697-2.103,1.322-2.617c0.44-0.349,0.987-0.601,1.639-0.757
		c0.652-0.156,1.667-0.271,3.045-0.344c1.285-0.092,2.966-0.138,5.041-0.138c2.811,0,4.83,0.11,6.061,0.331
		c1.23,0.22,2.14,0.633,2.728,1.239c0.404,0.404,0.661,0.868,0.771,1.392s0.184,1.584,0.221,3.182h-2.287v-0.633
		c-0.019-0.9-0.114-1.538-0.289-1.915c-0.175-0.376-0.528-0.666-1.061-0.868c-0.955-0.349-3.04-0.523-6.254-0.523
		c-4.5,0-7.107,0.275-7.823,0.827c-0.68,0.569-1.02,2.415-1.02,5.537c0,2.057,0.092,3.848,0.275,5.373
		c0.11,0.716,0.34,1.23,0.688,1.542c0.349,0.312,0.909,0.506,1.681,0.579c1.285,0.147,3.269,0.221,5.95,0.221
		c2.736,0,4.646-0.083,5.73-0.248c0.918-0.147,1.52-0.409,1.805-0.785c0.284-0.377,0.427-1.134,0.427-2.273L242.178,22.932z"/>
	<path class="st0" d="M245.181,10.837h20.854v2.149h-9.174v16.227h-2.452V12.986h-9.229V10.837z"/>
	<path class="st2" d="M267.413,29.213V10.837h17.245v2.149h-14.794v5.84h14.133v2.149h-14.133v8.237H267.413z"/>
	<path class="st2" d="M286.036,10.837h2.451v18.375h-2.451V10.837z"/>
	<path class="st2" d="M291.243,29.213V10.837h17.245v2.149h-14.794v5.84h14.133v2.149h-14.133v8.237H291.243z"/>
	<path class="st2" d="M321.547,10.782c3.141,0,5.354,0.102,6.639,0.303c1.286,0.202,2.223,0.597,2.811,1.185
		c0.697,0.661,1.13,1.874,1.295,3.637c0.128,1.084,0.192,2.479,0.192,4.188c0,2.259-0.105,3.967-0.316,5.124
		c-0.212,1.157-0.574,2.012-1.088,2.562c-0.533,0.569-1.419,0.96-2.659,1.171c-1.239,0.211-3.265,0.316-6.074,0.316
		c-4.941,0-8.082-0.146-9.422-0.44c-0.754-0.165-1.4-0.519-1.942-1.061s-0.896-1.18-1.061-1.915
		c-0.275-1.102-0.413-3.066-0.413-5.895c0-2.461,0.128-4.271,0.386-5.427c0.257-1.157,0.725-1.993,1.404-2.507
		c0.478-0.349,1.015-0.601,1.612-0.757c0.597-0.156,1.52-0.271,2.769-0.344C317.515,10.829,319.471,10.782,321.547,10.782z
		 M320.114,12.986c-2.277,0-3.949,0.069-5.014,0.207c-1.065,0.138-1.782,0.372-2.149,0.703c-0.624,0.569-0.937,2.525-0.937,5.868
		c0,2.038,0.055,3.521,0.165,4.449s0.312,1.547,0.606,1.859c0.422,0.459,1.515,0.744,3.278,0.854
		c1.652,0.092,3.406,0.138,5.262,0.138c2.976,0,5.133-0.12,6.475-0.358c1.028-0.184,1.652-0.809,1.873-1.873
		c0.202-1.213,0.303-2.773,0.303-4.684c0-2.479-0.092-4.178-0.275-5.097c-0.165-1.01-0.854-1.607-2.066-1.791
		C326.459,13.079,323.952,12.986,320.114,12.986z"/>
</g>
<g>
	<path class="st1" d="M11.231,19.882c-0.221-0.719-0.34-1.479-0.34-2.271c0-4.307,3.493-7.799,7.8-7.799
		c3.104,0,5.777,1.818,7.033,4.442c1.201-1.257,2.891-2.042,4.767-2.042c3.645,0,6.6,2.954,6.6,6.598
		c0,0.358-0.037,0.707-0.092,1.05h1.341c3.175,0,5.75,2.575,5.75,5.75s-2.575,5.75-5.75,5.75h-26.7c-3.175,0-5.75-2.575-5.75-5.75
		C5.892,22.575,8.247,20.094,11.231,19.882z"/>
	<path class="st1" d="M93.58,19.426c0.104-0.519,0.161-1.058,0.161-1.607c0-4.447-3.606-8.053-8.055-8.053
		c-1.632,0-3.146,0.488-4.416,1.323C79.938,5.865,75.217,2,69.58,2c-5.519,0-10.163,3.703-11.608,8.754
		c-4.955,0.74-8.76,4.979-8.809,10.129c-2.091,1.5-3.46,3.946-3.46,6.716c0,4.566,3.705,8.27,8.271,8.27h38.4
		c4.567,0,8.269-3.703,8.269-8.27C100.644,23.443,97.574,20.011,93.58,19.426z"/>
	<path class="st2" d="M73.237,19.776c0.37-1.211,0.572-2.495,0.572-3.829c0-7.264-5.892-13.153-13.154-13.153
		c-5.237,0-9.744,3.065-11.862,7.493c-2.027-2.12-4.877-3.446-8.041-3.446c-6.146,0-11.129,4.984-11.129,11.131
		c0,0.604,0.061,1.192,0.153,1.771h-2.261c-5.357,0-9.698,4.341-9.698,9.698c0,5.355,4.341,9.698,9.698,9.698h45.028
		c5.357,0,9.699-4.343,9.699-9.698C82.242,24.319,78.269,20.136,73.237,19.776z"/>
	<g>
	</g>
</g>
<g>
</g>
<g>
</g>
<g>
</g>
<g>
</g>
<g>
</g>
<g>
</g>
<g>
</g>
<g>
</g>
<g>
</g>
<g>
</g>
<g>
</g>
<g>
</g>
<g>
</g>
<g>
</g>
<g>
</g>
</svg>
