<?xml version="1.0" encoding="UTF-8" standalone="no"?>
<svg width="333px" height="40px" viewBox="0 0 333 40" version="1.1" xmlns="http://www.w3.org/2000/svg" xmlns:xlink="http://www.w3.org/1999/xlink" xmlns:sketch="http://www.bohemiancoding.com/sketch/ns">
    <!-- Generator: Sketch 3.0.4 (8054) - http://www.bohemiancoding.com/sketch -->
    <title>Imported Layers</title>
    <desc>Created with Sketch.</desc>
    <defs></defs>
    <g id="Page-1" stroke="none" stroke-width="1" fill="none" fill-rule="evenodd" sketch:type="MSPage">
        <g id="Imported-Layers" sketch:type="MSLayerGroup" transform="translate(1.000000, 1.000000)">
            <g>
                <g id="PROJECT-+-FIFO" transform="translate(107.000000, 2.000000)" font-weight="473" font-family="Microgramma D" font-size="28.097561" sketch:type="MSTextLayer" font-style="expanded">
                    <text id="PROJECT" fill="#6B6D71">
                        <tspan x="0" y="27">PROJECT</tspan>
                    </text>
                    <text id="FIFO" fill="#6AA9D0">
                        <tspan x="157" y="27">FIFO</tspan>
                    </text>
                </g>
                <g id="Group" sketch:type="MSShapeGroup">
                    <path d="M5,18 C5.22625138,17.5458432 5.10495594,16.7688866 5,16 C5.10495594,11.5639807 8.67086611,8 13,8 C16.2377679,8 18.9660364,9.85537933 20,13 C21.4745667,11.2519676 23.1999504,10.4512804 25,10 C28.8357936,10.4512804 31.8532375,13.4659422 32,17 C31.8532375,17.5528744 31.8154425,17.9079541 32,18 L33,18 C36.3710532,18.2586393 39,20.8883385 39,24 C39,27.3711797 36.3710532,30 33,30 L6,30 C2.62894683,30 0,27.3711797 0,24 C0,21.0289641 2.403935,18.495945 5,18 L5,18 Z" id="Fill-1" fill="#FFFFFF"></path>
                    <path d="M5,18 C5.22625138,17.5458432 5.10495594,16.7688866 5,16 C5.10495594,11.5639807 8.67086611,8 13,8 C16.2377679,8 18.9660364,9.85537933 20,13 C21.4745667,11.2519676 23.1999504,10.4512804 25,10 C28.8357936,10.4512804 31.8532375,13.4659422 32,17 C31.8532375,17.5528744 31.8154425,17.9079541 32,18 L33,18 C36.3710532,18.2586393 39,20.8883385 39,24 C39,27.3711797 36.3710532,30 33,30 L6,30 C2.62894683,30 0,27.3711797 0,24 C0,21.0289641 2.403935,18.495945 5,18 L5,18 Z" id="Stroke-2" stroke="#6AA9D0"></path>
                    <path d="M91,18 C90.7803215,17.4719758 90.8383791,16.9150505 91,16 C90.8383791,11.7514806 87.0967939,8.02470705 82,8 C80.7881722,8.02470705 79.2170459,8.52914262 78,9 C76.5178168,3.99456038 71.62044,0 66,0 C60.046446,0 55.2285634,3.82641519 54,9 C48.5885671,9.81202816 44.6397612,14.1918101 45,20 C42.4192836,21.0644112 41,23.5928167 41,26 C41,31.1735848 44.8434092,35 50,35 L89,35 C94.1601636,35 98,31.1735848 98,26 C98,22.1595791 94.8157672,18.6125162 91,18 L91,18 Z" id="Fill-3" fill="#FFFFFF"></path>
                    <path d="M91,18 C90.7803215,17.4719758 90.8383791,16.9150505 91,16 C90.8383791,11.7514806 87.0967939,8.02470705 82,8 C80.7881722,8.02470705 79.2170459,8.52914262 78,9 C76.5178168,3.99456038 71.62044,0 66,0 C60.046446,0 55.2285634,3.82641519 54,9 C48.5885671,9.81202816 44.6397612,14.1918101 45,20 C42.4192836,21.0644112 41,23.5928167 41,26 C41,31.1735848 44.8434092,35 50,35 L89,35 C94.1601636,35 98,31.1735848 98,26 C98,22.1595791 94.8157672,18.6125162 91,18 L91,18 Z" id="Stroke-4" stroke="#6AA9D0"></path>
                    <path d="M70,19 C70.0207662,17.48953 70.2311681,16.1465321 70,15 C70.2311681,7.15780747 64.1035506,1 57,1 C51.1042989,1 46.4172624,4.20537237 44,9 C42.1062633,6.61772788 39.1427311,5.23062346 36,5 C29.4597704,5.23062346 24.2776182,10.4414914 24,17 C24.2776182,17.5003316 24.3411864,18.1151222 24,19 L22,19 C16.5142384,18.7209115 12,23.2593803 12,29 C12,34.4597309 16.5142384,39 22,39 L69,39 C74.4857616,39 79,34.4597309 79,29 C79,23.5051165 74.8680662,19.131372 70,19" id="Fill-5" fill="#6AA9D0"></path>
                </g>
            </g>
        </g>
    </g>
</svg>